<svg xmlns="http://www.w3.org/2000/svg"  viewBox="0 0 64 64" width="64px" height="64px"><linearGradient id="SKETU~BGws7oJO6LvJO0xa" x1="12" x2="12" y1="20" y2="44" gradientUnits="userSpaceOnUse"><stop offset="0" stop-color="#6dc7ff"/><stop offset="1" stop-color="#e6abff"/></linearGradient><path fill="url(#SKETU~BGws7oJO6LvJO0xa)" d="M24,31H13v4h5.33c-0.44,0.92-1.07,1.72-1.84,2.37l0.003,0.003l-0.004-0.001	C15.273,38.388,13.708,39,12,39c-2.965,0-5.499-1.843-6.519-4.446l0,0C5.17,33.762,5,32.901,5,32c0-1.45,0.441-2.797,1.196-3.914	l0.132-0.173C7.594,26.145,9.66,25,12,25c1.87,0,3.57,0.73,4.82,1.93l3.34-3.73C18.02,21.22,15.15,20,12,20	c-4.14,0-7.79,2.1-9.95,5.29C0.755,27.206,0,29.515,0,32c0,1.97,0.475,3.829,1.316,5.469l0,0C3.305,41.346,7.342,44,12,44	c3.197,0,6.102-1.25,8.253-3.288l-0.002-0.004C22.56,38.529,24,35.429,24,32V31z"/><linearGradient id="SKETU~BGws7oJO6LvJO0xb" x1="45.856" x2="45.856" y1="22.006" y2="45.315" gradientUnits="userSpaceOnUse"><stop offset="0" stop-color="#1a6dff"/><stop offset="1" stop-color="#c822ff"/></linearGradient><path fill="url(#SKETU~BGws7oJO6LvJO0xb)" d="M34.273,22.006h-6.465v17.06h2.437v-5.687h3.939c3.381,0,5.809-2.36,5.809-5.687	S37.611,22.006,34.273,22.006z M33.495,30.942h-3.25v-6.499h3.25c2.32,0,3.807,1.094,3.807,3.25S35.827,30.942,33.495,30.942z M45.57,26.88c-2.804,0-4.878,1.546-4.954,3.672h2.379c0.196-1.011,1.167-1.673,2.499-1.673c1.614,0,2.527,0.725,2.527,2.063	l0.001,0.923l-3.302,0.171c-3.065,0.179-4.725,1.389-4.725,3.494c0,2.125,1.713,3.535,4.168,3.535c1.658,0,3.198-0.81,3.895-2.093	h0.054l0.007,2.093h2.437v-8.291C50.556,28.406,48.592,26.88,45.57,26.88z M48.013,34.488c0,1.536-1.353,2.63-3.142,2.63	c-1.407,0-2.303-0.652-2.303-1.652c0-1.031,0.862-1.63,2.51-1.725l2.942-0.215L48.013,34.488z M56.088,39.283l-4.72-12.403h2.868	l3.225,9.44l3.955-9.44h2.489c0,0-7.722,18.217-7.787,18.371l-2.489,0.064C53.674,45.21,56.088,39.283,56.088,39.283z"/></svg>